<svg id="Layer_1" data-name="Layer 1" xmlns="http://www.w3.org/2000/svg" xmlns:xlink="http://www.w3.org/1999/xlink" viewBox="0 0 1399.74 1128.09"><defs><clipPath id="clip-path" transform="translate(373.53 303.09)"><rect x="-21.77" y="-13.9" width="665.77" height="536.57" fill="none"/></clipPath></defs><g clip-path="url(#clip-path)"><polygon points="699.87 0.64 1398.94 564.05 699.87 1127.45 0.8 564.05 699.87 0.64" fill="none" stroke="#fff" stroke-miterlimit="10"/><line x1="1373.05" y1="543.18" x2="673.98" y2="1106.58" fill="none" stroke="#fff" stroke-miterlimit="10"/><line x1="1347.16" y1="522.31" x2="648.09" y2="1085.72" fill="none" stroke="#fff" stroke-miterlimit="10"/><line x1="1321.27" y1="501.45" x2="622.19" y2="1064.85" fill="none" stroke="#fff" stroke-miterlimit="10"/><line x1="1295.37" y1="480.58" x2="596.3" y2="1043.98" fill="none" stroke="#fff" stroke-miterlimit="10"/><line x1="1269.48" y1="459.71" x2="570.41" y2="1023.12" fill="none" stroke="#fff" stroke-miterlimit="10"/><line x1="1243.59" y1="438.85" x2="544.52" y2="1002.25" fill="none" stroke="#fff" stroke-miterlimit="10"/><line x1="1217.7" y1="417.98" x2="518.63" y2="981.38" fill="none" stroke="#fff" stroke-miterlimit="10"/><line x1="1191.81" y1="397.11" x2="492.74" y2="960.52" fill="none" stroke="#fff" stroke-miterlimit="10"/><line x1="1165.92" y1="376.24" x2="466.84" y2="939.65" fill="none" stroke="#fff" stroke-miterlimit="10"/><line x1="1140.03" y1="355.38" x2="440.95" y2="918.78" fill="none" stroke="#fff" stroke-miterlimit="10"/><line x1="1114.13" y1="334.51" x2="415.06" y2="897.91" fill="none" stroke="#fff" stroke-miterlimit="10"/><line x1="1088.24" y1="313.64" x2="389.17" y2="877.05" fill="none" stroke="#fff" stroke-miterlimit="10"/><line x1="1062.35" y1="292.78" x2="363.28" y2="856.18" fill="none" stroke="#fff" stroke-miterlimit="10"/><line x1="1036.46" y1="271.91" x2="337.39" y2="835.31" fill="none" stroke="#fff" stroke-miterlimit="10"/><line x1="1010.57" y1="251.04" x2="311.5" y2="814.45" fill="none" stroke="#fff" stroke-miterlimit="10"/><line x1="984.68" y1="230.18" x2="285.6" y2="793.58" fill="none" stroke="#fff" stroke-miterlimit="10"/><line x1="958.78" y1="209.31" x2="259.71" y2="772.71" fill="none" stroke="#fff" stroke-miterlimit="10"/><line x1="932.89" y1="188.44" x2="233.82" y2="751.85" fill="none" stroke="#fff" stroke-miterlimit="10"/><line x1="907" y1="167.58" x2="207.93" y2="730.98" fill="none" stroke="#fff" stroke-miterlimit="10"/><line x1="881.11" y1="146.71" x2="182.04" y2="710.11" fill="none" stroke="#fff" stroke-miterlimit="10"/><line x1="855.22" y1="125.84" x2="156.15" y2="689.25" fill="none" stroke="#fff" stroke-miterlimit="10"/><line x1="829.33" y1="104.98" x2="130.25" y2="668.38" fill="none" stroke="#fff" stroke-miterlimit="10"/><line x1="803.44" y1="84.11" x2="104.36" y2="647.51" fill="none" stroke="#fff" stroke-miterlimit="10"/><line x1="777.54" y1="63.24" x2="78.47" y2="626.65" fill="none" stroke="#fff" stroke-miterlimit="10"/><line x1="751.65" y1="42.38" x2="52.58" y2="605.78" fill="none" stroke="#fff" stroke-miterlimit="10"/><line x1="725.76" y1="21.51" x2="26.69" y2="584.91" fill="none" stroke="#fff" stroke-miterlimit="10"/></g></svg>