<svg id="Layer_1" data-name="Layer 1" xmlns="http://www.w3.org/2000/svg" viewBox="0 0 213.24 31"><g id="ArtCenter" style="isolation:isolate"><g style="isolation:isolate"><path d="M233.19,389h2.7l4.54,12.87h-2.72l-.86-2.73H232.2l-.84,2.73h-2.65Zm-.38,8.14h3.41l-1.16-3.71c-.06-.17-.11-.37-.17-.59s-.11-.45-.17-.65l-.18-.74h0c-.08.25-.14.5-.2.74s-.12.42-.17.65-.11.42-.17.59Z" transform="translate(-194.66 -380.35)"/><path d="M243.67,394.09h.05a3.52,3.52,0,0,1,.94-1.18,2.42,2.42,0,0,1,1.91-.33v2.14h-.06a2.54,2.54,0,0,0-2,.53,2.61,2.61,0,0,0-.77,2.1v4.5h-2.45v-9.23h2.36Z" transform="translate(-194.66 -380.35)"/><path d="M247.18,392.62h1.28v-2.88h2.39v2.88h1.58v1.62h-1.58v4.89a.86.86,0,0,0,.25.72,1,1,0,0,0,.67.2h.47a1.1,1.1,0,0,0,.25,0v1.8a2.49,2.49,0,0,1-.4,0l-.48,0H251a3.8,3.8,0,0,1-.89-.1,2.06,2.06,0,0,1-.8-.35,1.86,1.86,0,0,1-.59-.68,2.34,2.34,0,0,1-.22-1.08v-5.42h-1.28Z" transform="translate(-194.66 -380.35)"/><path d="M259.53,402.12a6.23,6.23,0,0,1-2.5-.49,5.7,5.7,0,0,1-2-1.39,6.37,6.37,0,0,1-1.28-2.1,7.69,7.69,0,0,1-.46-2.68,7.88,7.88,0,0,1,.44-2.65,6.12,6.12,0,0,1,1.23-2.14,5.66,5.66,0,0,1,1.94-1.43,6.24,6.24,0,0,1,2.57-.51,6.33,6.33,0,0,1,2.12.33,5.06,5.06,0,0,1,1.61.92,4.35,4.35,0,0,1,1.07,1.38,5,5,0,0,1,.51,1.71h-2.59a2.56,2.56,0,0,0-.89-1.56,2.75,2.75,0,0,0-1.83-.58,3.21,3.21,0,0,0-1.56.35,3,3,0,0,0-1.09,1,4.52,4.52,0,0,0-.65,1.44,7.24,7.24,0,0,0-.21,1.78,6.52,6.52,0,0,0,.24,1.82,4.44,4.44,0,0,0,.7,1.43,3.14,3.14,0,0,0,2.59,1.27,2.87,2.87,0,0,0,1.89-.62,2.45,2.45,0,0,0,.88-1.65h2.55a4.47,4.47,0,0,1-1.42,3,4.77,4.77,0,0,1-1.61,1A6.21,6.21,0,0,1,259.53,402.12Z" transform="translate(-194.66 -380.35)"/><path d="M270.43,402.12a5,5,0,0,1-2-.38,4.23,4.23,0,0,1-1.5-1,4.38,4.38,0,0,1-.93-1.56,5.77,5.77,0,0,1-.32-1.92,5.46,5.46,0,0,1,.34-1.92,4.6,4.6,0,0,1,.93-1.54,4.8,4.8,0,0,1,1.44-1,4.91,4.91,0,0,1,3.81,0,3.94,3.94,0,0,1,1.42,1.14,5.2,5.2,0,0,1,.88,1.76,8.36,8.36,0,0,1,.29,2.26h-6.69a2.9,2.9,0,0,0,.73,1.69,2.13,2.13,0,0,0,1.62.61,2,2,0,0,0,1.16-.3,1.88,1.88,0,0,0,.63-.83h2.41a3.85,3.85,0,0,1-.46,1.16,3.42,3.42,0,0,1-.86,1,4.19,4.19,0,0,1-1.26.66A5,5,0,0,1,270.43,402.12Zm-.2-7.86a1.91,1.91,0,0,0-1.47.53,2.69,2.69,0,0,0-.67,1.45h4.11a2.15,2.15,0,0,0-.59-1.43A1.81,1.81,0,0,0,270.23,394.26Z" transform="translate(-194.66 -380.35)"/><path d="M278.28,393.88h.05a3.42,3.42,0,0,1,1.13-1.14,3.2,3.2,0,0,1,1.61-.37,3.1,3.1,0,0,1,1.31.26,2.75,2.75,0,0,1,1,.72,3.13,3.13,0,0,1,.65,1.09,3.85,3.85,0,0,1,.24,1.38v6h-2.45v-5.67a1.76,1.76,0,0,0-.42-1.22,1.49,1.49,0,0,0-1.18-.47,1.73,1.73,0,0,0-1.34.59,2.17,2.17,0,0,0-.54,1.53v5.24h-2.44v-9.23h2.39Z" transform="translate(-194.66 -380.35)"/><path d="M285.05,392.62h1.28v-2.88h2.39v2.88h1.58v1.62h-1.58v4.89a.86.86,0,0,0,.25.72,1,1,0,0,0,.67.2h.47a1.1,1.1,0,0,0,.25,0v1.8a2.49,2.49,0,0,1-.4,0l-.48,0h-.65a3.8,3.8,0,0,1-.89-.1,2.06,2.06,0,0,1-.8-.35,2,2,0,0,1-.59-.68,2.34,2.34,0,0,1-.22-1.08v-5.42h-1.28Z" transform="translate(-194.66 -380.35)"/><path d="M295.81,402.12a5,5,0,0,1-2-.38,4.23,4.23,0,0,1-1.5-1,4.38,4.38,0,0,1-.93-1.56,5.77,5.77,0,0,1-.32-1.92,5.46,5.46,0,0,1,.34-1.92,4.6,4.6,0,0,1,.93-1.54,4.8,4.8,0,0,1,1.44-1,4.91,4.91,0,0,1,3.81,0,3.94,3.94,0,0,1,1.42,1.14,5.2,5.2,0,0,1,.88,1.76,8.36,8.36,0,0,1,.29,2.26h-6.69a2.9,2.9,0,0,0,.73,1.69,2.13,2.13,0,0,0,1.62.61,2,2,0,0,0,1.16-.3,1.88,1.88,0,0,0,.63-.83H300a3.85,3.85,0,0,1-.46,1.16,3.42,3.42,0,0,1-.86,1,4.19,4.19,0,0,1-1.26.66A5,5,0,0,1,295.81,402.12Zm-.2-7.86a1.91,1.91,0,0,0-1.47.53,2.69,2.69,0,0,0-.67,1.45h4.11a2.15,2.15,0,0,0-.59-1.43A1.81,1.81,0,0,0,295.61,394.26Z" transform="translate(-194.66 -380.35)"/><path d="M303.62,394.09h.06a3.5,3.5,0,0,1,.93-1.18,2.13,2.13,0,0,1,1.34-.4,2,2,0,0,1,.57.07v2.14h0a2.52,2.52,0,0,0-2,.53,2.58,2.58,0,0,0-.78,2.1v4.5h-2.44v-9.23h2.35Z" transform="translate(-194.66 -380.35)"/></g></g><g id="Ellipse_11" data-name="Ellipse 11"><circle cx="15" cy="15.5" r="15" fill="#f04a23"/></g><g id="Hackathon" style="isolation:isolate"><g style="isolation:isolate"><path d="M320.54,389h3.18v4.88h4.52V389h3.19v12.87h-3.19v-5.36h-4.52v5.36h-3.18Z" transform="translate(-194.66 -380.35)" fill="#f04a23"/><path d="M335.75,402.09a4.28,4.28,0,0,1-1.27-.18,2.68,2.68,0,0,1-1-.54,2.53,2.53,0,0,1-.65-.89,3,3,0,0,1-.23-1.2,2.57,2.57,0,0,1,.28-1.27,2.47,2.47,0,0,1,.76-.85,3.89,3.89,0,0,1,1.13-.51,9.21,9.21,0,0,1,1.35-.27,9.15,9.15,0,0,0,1.82-.36.69.69,0,0,0,.53-.67.92.92,0,0,0-.3-.72,1.41,1.41,0,0,0-1-.27,1.64,1.64,0,0,0-1.07.31,1.35,1.35,0,0,0-.43.88H333a3,3,0,0,1,.29-1.22,2.93,2.93,0,0,1,.78-1,3.59,3.59,0,0,1,1.29-.68,5.78,5.78,0,0,1,1.82-.26,7.34,7.34,0,0,1,1.76.19,3.68,3.68,0,0,1,1.23.57,2.63,2.63,0,0,1,.88,1.1,3.83,3.83,0,0,1,.29,1.53v4.64a5,5,0,0,0,.06.88.65.65,0,0,0,.26.44v.12h-2.84a.93.93,0,0,1-.18-.4,6,6,0,0,1-.13-.62h0a2.89,2.89,0,0,1-1.05.91A3.55,3.55,0,0,1,335.75,402.09Zm.93-1.88a1.94,1.94,0,0,0,1.34-.45,1.5,1.5,0,0,0,.52-1.2v-1.1a4,4,0,0,1-.68.26c-.26.08-.53.16-.83.23a3.55,3.55,0,0,0-1.23.46.88.88,0,0,0-.38.78.86.86,0,0,0,.36.79A1.59,1.59,0,0,0,336.68,400.21Z" transform="translate(-194.66 -380.35)" fill="#f04a23"/><path d="M347.27,402.14a5.19,5.19,0,0,1-2-.37,4.55,4.55,0,0,1-1.54-1,4.89,4.89,0,0,1-1-1.55,5.35,5.35,0,0,1-.35-1.94,5.51,5.51,0,0,1,.34-1.93,4.45,4.45,0,0,1,1-1.55,4.4,4.4,0,0,1,1.52-1,5.23,5.23,0,0,1,2-.37,5.09,5.09,0,0,1,1.7.27,3.85,3.85,0,0,1,1.32.73,3.73,3.73,0,0,1,.9,1.11,4.22,4.22,0,0,1,.45,1.42h-2.83a2,2,0,0,0-.51-1,1.38,1.38,0,0,0-1-.37,1.58,1.58,0,0,0-1.42.73,3.68,3.68,0,0,0-.47,2,3.55,3.55,0,0,0,.47,2,1.55,1.55,0,0,0,1.42.72c.94,0,1.47-.52,1.6-1.58h2.81a4,4,0,0,1-.35,1.49,3.59,3.59,0,0,1-.88,1.2,4.12,4.12,0,0,1-1.37.8A5.21,5.21,0,0,1,347.27,402.14Z" transform="translate(-194.66 -380.35)" fill="#f04a23"/><path d="M352.59,389h2.9v6.77l2.74-3.11h3.38l-3.24,3.45,3.62,5.76h-3.4l-2.21-3.76-.89.94v2.82h-2.9Z" transform="translate(-194.66 -380.35)" fill="#f04a23"/><path d="M365.05,402.09a4.28,4.28,0,0,1-1.27-.18,2.76,2.76,0,0,1-1-.54,2.66,2.66,0,0,1-.65-.89,3,3,0,0,1-.23-1.2,2.57,2.57,0,0,1,.28-1.27,2.5,2.5,0,0,1,.77-.85,3.72,3.72,0,0,1,1.12-.51,9.35,9.35,0,0,1,1.36-.27,9.31,9.31,0,0,0,1.82-.36.69.69,0,0,0,.52-.67.92.92,0,0,0-.3-.72,1.41,1.41,0,0,0-1-.27,1.61,1.61,0,0,0-1.06.31,1.35,1.35,0,0,0-.44.88h-2.69a3,3,0,0,1,.28-1.22,2.84,2.84,0,0,1,.79-1,3.63,3.63,0,0,1,1.28-.68,5.83,5.83,0,0,1,1.82-.26,7.22,7.22,0,0,1,1.76.19,3.59,3.59,0,0,1,1.23.57,2.56,2.56,0,0,1,.88,1.1,3.83,3.83,0,0,1,.29,1.53v4.64a5,5,0,0,0,.06.88.65.65,0,0,0,.26.44v.12h-2.84a1.25,1.25,0,0,1-.18-.4,6,6,0,0,1-.13-.62h0a3,3,0,0,1-1.06.91A3.5,3.5,0,0,1,365.05,402.09Zm.94-1.88a2,2,0,0,0,1.34-.45,1.52,1.52,0,0,0,.51-1.2v-1.1a4.26,4.26,0,0,1-.67.26c-.26.08-.54.16-.84.23a3.49,3.49,0,0,0-1.22.46,1,1,0,0,0,0,1.57A1.59,1.59,0,0,0,366,400.21Z" transform="translate(-194.66 -380.35)" fill="#f04a23"/><path d="M375.56,402a5.42,5.42,0,0,1-1.18-.12,2.32,2.32,0,0,1-.92-.4,1.86,1.86,0,0,1-.62-.78,3.18,3.18,0,0,1-.21-1.24v-4.95h-1.22v-1.83h1.22v-2.92h2.86v2.92h1.68v1.83h-1.68v4.32a.79.79,0,0,0,.28.72,1.39,1.39,0,0,0,.75.18h.65v2.15a5.91,5.91,0,0,1-.61.1A9.41,9.41,0,0,1,375.56,402Z" transform="translate(-194.66 -380.35)" fill="#f04a23"/><path d="M378.25,389h2.93v4.79h.05a3.93,3.93,0,0,1,1.14-1,3.08,3.08,0,0,1,1.6-.37,3.25,3.25,0,0,1,1.35.26,2.92,2.92,0,0,1,1,.72,3.2,3.2,0,0,1,.63,1.1,4.44,4.44,0,0,1,.21,1.41v6h-2.93v-5.4a1.86,1.86,0,0,0-.36-1.19,1.3,1.3,0,0,0-1.08-.45,1.44,1.44,0,0,0-1.18.54,2.18,2.18,0,0,0-.44,1.41v5.09h-2.93Z" transform="translate(-194.66 -380.35)" fill="#f04a23"/><path d="M393,402.14a5.23,5.23,0,0,1-2-.37,4.54,4.54,0,0,1-1.56-1,4.59,4.59,0,0,1-1-1.55,5.35,5.35,0,0,1-.35-1.94,5.3,5.3,0,0,1,.35-1.93,4.5,4.5,0,0,1,1-1.55,4.57,4.57,0,0,1,1.56-1,5.42,5.42,0,0,1,2-.37,5.51,5.51,0,0,1,2,.37,4.5,4.5,0,0,1,2.53,2.58,5.09,5.09,0,0,1,.35,1.93,5.15,5.15,0,0,1-.35,1.94,4.57,4.57,0,0,1-1,1.55,4.46,4.46,0,0,1-1.54,1A5.32,5.32,0,0,1,393,402.14Zm0-2.09a1.63,1.63,0,0,0,1.47-.76,4.45,4.45,0,0,0,0-4.06,1.77,1.77,0,0,0-2.93,0,4.53,4.53,0,0,0,0,4.06A1.63,1.63,0,0,0,393,400.05Z" transform="translate(-194.66 -380.35)" fill="#f04a23"/><path d="M399,392.64h2.83v1.26h0a3.73,3.73,0,0,1,1.2-1.15,3.35,3.35,0,0,1,1.65-.38,3.25,3.25,0,0,1,1.35.26,2.79,2.79,0,0,1,1,.72,2.91,2.91,0,0,1,.63,1.1,4.17,4.17,0,0,1,.22,1.41v6H405v-5.4a1.86,1.86,0,0,0-.36-1.19,1.3,1.3,0,0,0-1.08-.45,1.43,1.43,0,0,0-1.18.54,2.13,2.13,0,0,0-.44,1.41v5.09H399Z" transform="translate(-194.66 -380.35)" fill="#f04a23"/></g></g><g id="Line_1" data-name="Line 1"><rect x="118" width="1" height="31"/></g></svg>